<svg xmlns="http://www.w3.org/2000/svg" xmlns:xlink="http://www.w3.org/1999/xlink" width="66.916" height="65.004" viewBox="0 0 66.916 65.004">
  <defs>
    <linearGradient id="linear-gradient" y1="0.5" x2="1" y2="0.5" gradientUnits="objectBoundingBox">
      <stop offset="0" stop-color="#c4e3f7"/>
      <stop offset="1" stop-color="#d9eaf8"/>
    </linearGradient>
    <linearGradient id="linear-gradient-8" x1="0.208" y1="1.112" x2="0.78" y2="0.224" xlink:href="#linear-gradient"/>
  </defs>
  <g id="Blizzard" transform="translate(-1033.966 -529.148)">
    <circle id="Ellipse_72" data-name="Ellipse 72" cx="2" cy="2" r="2" transform="translate(1043.101 573.87)" fill="url(#linear-gradient)"/>
    <circle id="Ellipse_73" data-name="Ellipse 73" cx="2" cy="2" r="2" transform="translate(1053.101 573.87)" fill="url(#linear-gradient)"/>
    <circle id="Ellipse_74" data-name="Ellipse 74" cx="2" cy="2" r="2" transform="translate(1063.101 573.87)" fill="url(#linear-gradient)"/>
    <circle id="Ellipse_75" data-name="Ellipse 75" cx="2" cy="2" r="2" transform="translate(1043.101 590.152)" fill="url(#linear-gradient)"/>
    <circle id="Ellipse_76" data-name="Ellipse 76" cx="2" cy="2" r="2" transform="translate(1053.101 590.152)" fill="url(#linear-gradient)"/>
    <circle id="Ellipse_77" data-name="Ellipse 77" cx="2" cy="2" r="2" transform="translate(1048.101 582.152)" fill="url(#linear-gradient)"/>
    <circle id="Ellipse_78" data-name="Ellipse 78" cx="2" cy="2" r="2" transform="translate(1058.101 582.152)" fill="url(#linear-gradient)"/>
    <path id="Path_151" data-name="Path 151" d="M1079.968,565.587a10.664,10.664,0,0,0,0-21.328c-.036,0-.072.005-.109.005a17.022,17.022,0,0,0-32.443-5.068c-.084,0-.167-.006-.252-.006a13.2,13.2,0,0,0,0,26.4" fill="#eee"/>
    <path id="Path_152" data-name="Path 152" d="M1094.186,565.587a6.7,6.7,0,0,0,0-13.393c-.023,0-.045,0-.068,0a10.689,10.689,0,0,0-20.373-3.183c-.053,0-.1,0-.158,0a8.288,8.288,0,1,0,0,16.576" fill="url(#linear-gradient-8)"/>
    <circle id="Ellipse_79" data-name="Ellipse 79" cx="4.831" cy="4.831" r="4.831" transform="translate(1072.823 572.87)" fill="url(#linear-gradient)"/>
  </g>
</svg>
