<svg xmlns="http://www.w3.org/2000/svg" xmlns:xlink="http://www.w3.org/1999/xlink" width="67" height="73.543" viewBox="0 0 67 73.543">
  <defs>
    <linearGradient id="linear-gradient" x1="0.149" y1="0.851" x2="0.694" y2="0.306" gradientUnits="objectBoundingBox">
      <stop offset="0" stop-color="#00a1ed"/>
      <stop offset="1" stop-color="#00b2f1"/>
    </linearGradient>
    <linearGradient id="linear-gradient-2" x1="0.208" y1="1.112" x2="0.78" y2="0.223" gradientUnits="objectBoundingBox">
      <stop offset="0" stop-color="#c4e3f7"/>
      <stop offset="1" stop-color="#d9eaf8"/>
    </linearGradient>
    <linearGradient id="linear-gradient-3" x1="0" y1="0.5" x2="1" y2="0.5" xlink:href="#linear-gradient-2"/>
  </defs>
  <g id="Blizzard_Night" data-name="Blizzard Night" transform="translate(-1488.628 -208.132)">
    <path id="Path_148" data-name="Path 148" d="M1541.568,236.8a14.6,14.6,0,0,1-4.033-28.637.765.765,0,0,1,.947.946,13.05,13.05,0,0,0,16.17,16.17.765.765,0,0,1,.946.947A14.664,14.664,0,0,1,1541.568,236.8Z" fill="url(#linear-gradient)"/>
    <path id="Path_149" data-name="Path 149" d="M1534.631,253.109a10.664,10.664,0,1,0,0-21.328c-.037,0-.073,0-.109,0a17.023,17.023,0,0,0-32.444-5.068c-.084,0-.167-.006-.252-.006a13.2,13.2,0,0,0,0,26.4" fill="url(#linear-gradient-2)"/>
    <path id="Path_150" data-name="Path 150" d="M1548.848,253.109a6.7,6.7,0,1,0,0-13.393c-.023,0-.045,0-.068,0a10.689,10.689,0,0,0-20.373-3.182c-.052,0-.1,0-.158,0a8.288,8.288,0,0,0,0,16.576" fill="#eee"/>
    <circle id="Ellipse_64" data-name="Ellipse 64" cx="2" cy="2" r="2" transform="translate(1500.395 261.392)" fill="url(#linear-gradient-3)"/>
    <circle id="Ellipse_65" data-name="Ellipse 65" cx="2" cy="2" r="2" transform="translate(1510.395 261.392)" fill="url(#linear-gradient-3)"/>
    <circle id="Ellipse_66" data-name="Ellipse 66" cx="2" cy="2" r="2" transform="translate(1520.395 261.392)" fill="url(#linear-gradient-3)"/>
    <circle id="Ellipse_67" data-name="Ellipse 67" cx="2" cy="2" r="2" transform="translate(1500.395 277.674)" fill="url(#linear-gradient-3)"/>
    <circle id="Ellipse_68" data-name="Ellipse 68" cx="2" cy="2" r="2" transform="translate(1510.395 277.674)" fill="url(#linear-gradient-3)"/>
    <circle id="Ellipse_69" data-name="Ellipse 69" cx="2" cy="2" r="2" transform="translate(1505.395 269.674)" fill="url(#linear-gradient-3)"/>
    <circle id="Ellipse_70" data-name="Ellipse 70" cx="2" cy="2" r="2" transform="translate(1515.395 269.674)" fill="url(#linear-gradient-3)"/>
    <circle id="Ellipse_71" data-name="Ellipse 71" cx="4.831" cy="4.831" r="4.831" transform="translate(1530.118 260.392)" fill="url(#linear-gradient-3)"/>
  </g>
</svg>
