<svg xmlns="http://www.w3.org/2000/svg" xmlns:xlink="http://www.w3.org/1999/xlink" width="67" height="67.898" viewBox="0 0 67 67.898">
  <defs>
    <linearGradient id="linear-gradient" x1="0.149" y1="0.851" x2="0.694" y2="0.306" gradientUnits="objectBoundingBox">
      <stop offset="0" stop-color="#00a1ed"/>
      <stop offset="1" stop-color="#00b2f1"/>
    </linearGradient>
    <linearGradient id="linear-gradient-2" x1="0.208" y1="1.112" x2="0.78" y2="0.224" gradientUnits="objectBoundingBox">
      <stop offset="0" stop-color="#c4e3f7"/>
      <stop offset="1" stop-color="#d9eaf8"/>
    </linearGradient>
    <linearGradient id="linear-gradient-3" x1="0" y1="0.5" x2="1" y2="0.5" xlink:href="#linear-gradient"/>
  </defs>
  <g id="Drizzle_Night" data-name="Drizzle Night" transform="translate(-276.084 -671.117)">
    <path id="Path_128" data-name="Path 128" d="M329.024,699.783a14.6,14.6,0,0,1-4.033-28.637.766.766,0,0,1,.947.947,13.052,13.052,0,0,0,16.17,16.17.764.764,0,0,1,.946.946A14.663,14.663,0,0,1,329.024,699.783Z" fill="url(#linear-gradient)"/>
    <path id="Path_129" data-name="Path 129" d="M322.087,715.487a10.664,10.664,0,0,0,0-21.328c-.037,0-.073.006-.109.006a17.022,17.022,0,0,0-32.444-5.068c-.084,0-.167-.006-.252-.006a13.2,13.2,0,0,0,0,26.4" fill="url(#linear-gradient-2)"/>
    <path id="Path_130" data-name="Path 130" d="M336.3,715.487a6.7,6.7,0,1,0,0-13.392c-.023,0-.045,0-.068,0a10.689,10.689,0,0,0-20.373-3.182c-.052,0-.105,0-.158,0a8.288,8.288,0,1,0,0,16.575" fill="#eee"/>
    <path id="Path_131" data-name="Path 131" d="M288.226,731.835a2,2,0,0,1-1.731-3l2.887-5a2,2,0,0,1,3.465,2l-2.887,5A2,2,0,0,1,288.226,731.835Z" fill="url(#linear-gradient-3)"/>
    <path id="Path_132" data-name="Path 132" d="M304.338,731.835a2,2,0,0,1-1.731-3l2.887-5a2,2,0,0,1,3.465,2l-2.887,5A2,2,0,0,1,304.338,731.835Z" fill="url(#linear-gradient-3)"/>
    <path id="Path_133" data-name="Path 133" d="M320.449,731.835a2,2,0,0,1-1.73-3l2.887-5a2,2,0,0,1,3.464,2l-2.886,5A2,2,0,0,1,320.449,731.835Z" fill="url(#linear-gradient-3)"/>
    <path id="Path_134" data-name="Path 134" d="M293.226,739.015a2,2,0,0,1-1.731-3l2.887-5a2,2,0,0,1,3.465,2l-2.887,5A2,2,0,0,1,293.226,739.015Z" fill="url(#linear-gradient-3)"/>
    <path id="Path_135" data-name="Path 135" d="M309.838,739.015a2,2,0,0,1-1.73-3l2.886-5a2,2,0,0,1,3.465,2l-2.887,5A2,2,0,0,1,309.838,739.015Z" fill="url(#linear-gradient-3)"/>
    <path id="Path_136" data-name="Path 136" d="M326.449,739.015a2,2,0,0,1-1.73-3l2.887-5a2,2,0,0,1,3.464,2l-2.886,5A2,2,0,0,1,326.449,739.015Z" fill="url(#linear-gradient-3)"/>
  </g>
</svg>
