<svg xmlns="http://www.w3.org/2000/svg" xmlns:xlink="http://www.w3.org/1999/xlink" width="66.916" height="59.966" viewBox="0 0 66.916 59.966">
  <defs>
    <linearGradient id="linear-gradient" x1="0.208" y1="1.112" x2="0.78" y2="0.224" gradientUnits="objectBoundingBox">
      <stop offset="0" stop-color="#c4e3f7"/>
      <stop offset="1" stop-color="#d9eaf8"/>
    </linearGradient>
    <linearGradient id="linear-gradient-2" y1="0.5" x2="1" y2="0.5" gradientUnits="objectBoundingBox">
      <stop offset="0" stop-color="#00a1ed"/>
      <stop offset="1" stop-color="#00b2f1"/>
    </linearGradient>
  </defs>
  <g id="Drizzle" transform="translate(-276.126 -215.92)">
    <path id="Path_137" data-name="Path 137" d="M322.128,252.359a10.664,10.664,0,1,0,0-21.328c-.036,0-.072,0-.109,0a17.022,17.022,0,0,0-32.443-5.068c-.084,0-.167-.006-.252-.006a13.2,13.2,0,0,0,0,26.4" fill="#eee"/>
    <path id="Path_138" data-name="Path 138" d="M336.346,252.359a6.7,6.7,0,0,0,0-13.393c-.023,0-.045,0-.068,0a10.689,10.689,0,0,0-20.373-3.183c-.053,0-.105,0-.158,0a8.288,8.288,0,0,0,0,16.576" fill="url(#linear-gradient)"/>
    <path id="Path_139" data-name="Path 139" d="M285.767,268.706a2,2,0,0,1-1.73-3l2.887-5a2,2,0,1,1,3.464,2l-2.886,5A2,2,0,0,1,285.767,268.706Z" fill="url(#linear-gradient-2)"/>
    <path id="Path_140" data-name="Path 140" d="M301.879,268.706a2,2,0,0,1-1.73-3l2.886-5a2,2,0,0,1,3.465,2l-2.886,5A2,2,0,0,1,301.879,268.706Z" fill="url(#linear-gradient-2)"/>
    <path id="Path_141" data-name="Path 141" d="M317.991,268.706a2,2,0,0,1-1.73-3l2.886-5a2,2,0,0,1,3.465,2l-2.887,5A2,2,0,0,1,317.991,268.706Z" fill="url(#linear-gradient-2)"/>
    <path id="Path_142" data-name="Path 142" d="M290.767,275.886a2,2,0,0,1-1.73-3l2.887-5a2,2,0,0,1,3.464,2l-2.886,5A2,2,0,0,1,290.767,275.886Z" fill="url(#linear-gradient-2)"/>
    <path id="Path_143" data-name="Path 143" d="M307.38,275.886a2,2,0,0,1-1.731-3l2.887-5a2,2,0,0,1,3.465,2l-2.887,5A2,2,0,0,1,307.38,275.886Z" fill="url(#linear-gradient-2)"/>
    <path id="Path_144" data-name="Path 144" d="M323.991,275.886a2,2,0,0,1-1.73-3l2.886-5a2,2,0,0,1,3.465,2l-2.887,5A2,2,0,0,1,323.991,275.886Z" fill="url(#linear-gradient-2)"/>
  </g>
</svg>
