<svg xmlns="http://www.w3.org/2000/svg" xmlns:xlink="http://www.w3.org/1999/xlink" width="67" height="69.909" viewBox="0 0 67 69.909">
  <defs>
    <linearGradient id="linear-gradient" x1="0.149" y1="0.851" x2="0.694" y2="0.306" gradientUnits="objectBoundingBox">
      <stop offset="0" stop-color="#00a1ed"/>
      <stop offset="1" stop-color="#00b2f1"/>
    </linearGradient>
    <linearGradient id="linear-gradient-2" x1="0.208" y1="1.112" x2="0.78" y2="0.223" gradientUnits="objectBoundingBox">
      <stop offset="0" stop-color="#c4e3f7"/>
      <stop offset="1" stop-color="#d9eaf8"/>
    </linearGradient>
    <linearGradient id="linear-gradient-3" x1="0" y1="0.5" x2="1" y2="0.5" xlink:href="#linear-gradient-2"/>
  </defs>
  <g id="Hail_Night" data-name="Hail Night" transform="translate(-1185.492 -369.916)">
    <path id="Path_110" data-name="Path 110" d="M1238.432,398.582a14.6,14.6,0,0,1-4.033-28.637.765.765,0,0,1,.947.947,13.052,13.052,0,0,0,16.17,16.17.765.765,0,0,1,.946.947A14.664,14.664,0,0,1,1238.432,398.582Z" fill="url(#linear-gradient)"/>
    <path id="Path_111" data-name="Path 111" d="M1231.495,414.893a10.663,10.663,0,1,0,0-21.327c-.037,0-.073.005-.109.005a17.023,17.023,0,0,0-32.444-5.068c-.084,0-.167-.006-.252-.006a13.2,13.2,0,0,0,0,26.4" fill="url(#linear-gradient-2)"/>
    <path id="Path_112" data-name="Path 112" d="M1245.712,414.893a6.7,6.7,0,1,0,0-13.392c-.023,0-.045,0-.068,0a10.689,10.689,0,0,0-20.373-3.182c-.052,0-.1,0-.158,0a8.288,8.288,0,1,0,0,16.575" fill="#eee"/>
    <circle id="Ellipse_47" data-name="Ellipse 47" cx="4.831" cy="4.831" r="4.831" transform="translate(1195.77 423.176)" fill="url(#linear-gradient-3)"/>
    <circle id="Ellipse_48" data-name="Ellipse 48" cx="4.831" cy="4.831" r="4.831" transform="translate(1223.683 423.176)" fill="url(#linear-gradient-3)"/>
    <circle id="Ellipse_49" data-name="Ellipse 49" cx="4.831" cy="4.831" r="4.831" transform="translate(1210.208 430.164)" fill="url(#linear-gradient-3)"/>
  </g>
</svg>
