<svg xmlns="http://www.w3.org/2000/svg" xmlns:xlink="http://www.w3.org/1999/xlink" width="66.916" height="61.371" viewBox="0 0 66.916 61.371">
  <defs>
    <linearGradient id="linear-gradient" x1="0.208" y1="1.112" x2="0.78" y2="0.224" gradientUnits="objectBoundingBox">
      <stop offset="0" stop-color="#c4e3f7"/>
      <stop offset="1" stop-color="#d9eaf8"/>
    </linearGradient>
    <linearGradient id="linear-gradient-2" x1="0" y1="0.5" x2="1" y2="0.5" xlink:href="#linear-gradient"/>
  </defs>
  <g id="Hail" transform="translate(-427.694 -528.965)">
    <path id="Path_113" data-name="Path 113" d="M473.7,565.4a10.664,10.664,0,0,0,0-21.328c-.036,0-.072.005-.109.005a17.022,17.022,0,0,0-32.443-5.068c-.084,0-.167-.006-.252-.006a13.2,13.2,0,0,0,0,26.4" fill="#eee"/>
    <path id="Path_114" data-name="Path 114" d="M487.914,565.4a6.7,6.7,0,0,0,0-13.393c-.023,0-.045,0-.068,0a10.689,10.689,0,0,0-20.373-3.183c-.053,0-.1,0-.158,0a8.288,8.288,0,1,0,0,16.576" fill="url(#linear-gradient)"/>
    <circle id="Ellipse_50" data-name="Ellipse 50" cx="4.831" cy="4.831" r="4.831" transform="translate(437.972 573.687)" fill="url(#linear-gradient-2)"/>
    <circle id="Ellipse_51" data-name="Ellipse 51" cx="4.831" cy="4.831" r="4.831" transform="translate(465.884 573.687)" fill="url(#linear-gradient-2)"/>
    <circle id="Ellipse_52" data-name="Ellipse 52" cx="4.831" cy="4.831" r="4.831" transform="translate(452.409 580.674)" fill="url(#linear-gradient-2)"/>
  </g>
</svg>
