<svg xmlns="http://www.w3.org/2000/svg" xmlns:xlink="http://www.w3.org/1999/xlink" width="64.109" height="40.91" viewBox="0 0 64.109 40.91">
  <defs>
    <linearGradient id="linear-gradient" x1="0.146" y1="0.854" x2="0.854" y2="0.146" gradientUnits="objectBoundingBox">
      <stop offset="0" stop-color="#ffa611"/>
      <stop offset="1" stop-color="#ffc005"/>
    </linearGradient>
  </defs>
  <g id="Haze" transform="translate(-1338.505 -379.994)">
    <circle id="Ellipse_46" data-name="Ellipse 46" cx="20.455" cy="20.455" r="20.455" transform="translate(1338.505 379.994)" fill="url(#linear-gradient)"/>
    <path id="Path_104" data-name="Path 104" d="M1369.614,401.15h-10a1.5,1.5,0,0,1,0-3h10a1.5,1.5,0,0,1,0,3Z" fill="#eee"/>
    <path id="Path_105" data-name="Path 105" d="M1391.114,401.15h-15a1.5,1.5,0,0,1,0-3h15a1.5,1.5,0,0,1,0,3Z" fill="#eee"/>
    <path id="Path_106" data-name="Path 106" d="M1369.614,415.65h-10a1.5,1.5,0,0,1,0-3h10a1.5,1.5,0,0,1,0,3Z" fill="#eee"/>
    <path id="Path_107" data-name="Path 107" d="M1391.114,415.65h-15a1.5,1.5,0,0,1,0-3h15a1.5,1.5,0,0,1,0,3Z" fill="#eee"/>
    <path id="Path_108" data-name="Path 108" d="M1379.614,408.65h-20a1.5,1.5,0,0,1,0-3h20a1.5,1.5,0,0,1,0,3Z" fill="#eee"/>
    <path id="Path_109" data-name="Path 109" d="M1401.114,408.65h-15a1.5,1.5,0,0,1,0-3h15a1.5,1.5,0,0,1,0,3Z" fill="#eee"/>
  </g>
</svg>
