<svg xmlns="http://www.w3.org/2000/svg" xmlns:xlink="http://www.w3.org/1999/xlink" width="66.916" height="59.045" viewBox="0 0 66.916 59.045">
  <defs>
    <linearGradient id="linear-gradient" x1="-0.077" y1="0.836" x2="0.8" y2="0.107" gradientUnits="objectBoundingBox">
      <stop offset="0" stop-color="#ffa611"/>
      <stop offset="1" stop-color="#ffc005"/>
    </linearGradient>
    <linearGradient id="linear-gradient-2" x1="0.208" y1="1.112" x2="0.78" y2="0.223" gradientUnits="objectBoundingBox">
      <stop offset="0" stop-color="#c4e3f7"/>
      <stop offset="1" stop-color="#d9eaf8"/>
    </linearGradient>
    <linearGradient id="linear-gradient-3" y1="0.5" x2="1" y2="0.5" gradientUnits="objectBoundingBox">
      <stop offset="0" stop-color="#00a1ed"/>
      <stop offset="1" stop-color="#00b2f1"/>
    </linearGradient>
  </defs>
  <g id="Mix_Rainfall" data-name="Mix Rainfall" transform="translate(-579.262 -216.38)">
    <path id="Path_84" data-name="Path 84" d="M619.862,249.08a5.759,5.759,0,0,0-4.5,2.6l-5.267,9.122c-.825,1.429-.154,2.5,1.492,2.378l4.3-.317c1.646-.12,2.347.967,1.56,2.417l-4.786,8.806c-.787,1.45-.389,1.778.885.73l17.3-14.229c1.274-1.048.968-1.837-.679-1.752l-6.611.338c-1.648.084-2.322-1.016-1.5-2.445l2.91-5.039c.825-1.429.15-2.6-1.5-2.6Z" fill="url(#linear-gradient)"/>
    <path id="Path_85" data-name="Path 85" d="M625.264,252.819a10.664,10.664,0,0,0,0-21.328c-.036,0-.072.005-.109.006a17.022,17.022,0,0,0-32.443-5.068c-.084,0-.167-.007-.252-.007a13.2,13.2,0,0,0,0,26.4" fill="#eee"/>
    <path id="Path_86" data-name="Path 86" d="M639.482,252.819a6.7,6.7,0,0,0,0-13.392c-.023,0-.045,0-.068,0a10.689,10.689,0,0,0-20.373-3.182c-.053,0-.105,0-.158,0a8.287,8.287,0,1,0,0,16.575" fill="url(#linear-gradient-2)"/>
    <path id="Path_87" data-name="Path 87" d="M585.075,275.334a2,2,0,0,1-1.73-3l6.5-11.257a2,2,0,0,1,3.464,2l-6.5,11.257A2,2,0,0,1,585.075,275.334Z" fill="url(#linear-gradient-3)"/>
    <path id="Path_88" data-name="Path 88" d="M595.709,275.334a2,2,0,0,1-1.73-3l6.5-11.257a2,2,0,0,1,3.464,2l-6.5,11.257A2,2,0,0,1,595.709,275.334Z" fill="url(#linear-gradient-3)"/>
    <path id="Path_89" data-name="Path 89" d="M610.345,272.891" fill="none" stroke="#00a1ed" stroke-linecap="round" stroke-miterlimit="10" stroke-width="4"/>
    <path id="Path_90" data-name="Path 90" d="M616.844,261.634" fill="none" stroke="#00a1ed" stroke-linecap="round" stroke-miterlimit="10" stroke-width="4"/>
  </g>
</svg>
