<svg xmlns="http://www.w3.org/2000/svg" xmlns:xlink="http://www.w3.org/1999/xlink" width="67" height="68.094" viewBox="0 0 67 68.094">
  <defs>
    <linearGradient id="linear-gradient" x1="-0.077" y1="0.836" x2="0.8" y2="0.107" gradientUnits="objectBoundingBox">
      <stop offset="0" stop-color="#ffa611"/>
      <stop offset="1" stop-color="#ffc005"/>
    </linearGradient>
    <linearGradient id="linear-gradient-2" x1="0.149" y1="0.851" x2="0.694" y2="0.306" gradientUnits="objectBoundingBox">
      <stop offset="0" stop-color="#00a1ed"/>
      <stop offset="1" stop-color="#00b2f1"/>
    </linearGradient>
    <linearGradient id="linear-gradient-3" x1="0.208" y1="1.112" x2="0.78" y2="0.223" gradientUnits="objectBoundingBox">
      <stop offset="0" stop-color="#c4e3f7"/>
      <stop offset="1" stop-color="#d9eaf8"/>
    </linearGradient>
    <linearGradient id="linear-gradient-4" x1="0" y1="0.5" x2="1" y2="0.5" xlink:href="#linear-gradient-2"/>
  </defs>
  <g id="Mix_Rainfall_Night" data-name="Mix Rainfall Night" transform="translate(-427.652 -206.856)">
    <path id="Path_78" data-name="Path 78" d="M468.252,248.6a5.755,5.755,0,0,0-4.5,2.6l-5.267,9.122c-.825,1.429-.153,2.5,1.492,2.378l4.3-.316c1.646-.121,2.348.966,1.56,2.416l-4.785,8.806c-.788,1.45-.39,1.779.885.731l17.3-14.23c1.274-1.048.969-1.836-.679-1.752l-6.611.338c-1.648.085-2.321-1.015-1.5-2.444l2.909-5.04c.825-1.429.15-2.6-1.5-2.6Z" fill="url(#linear-gradient)"/>
    <path id="Path_79" data-name="Path 79" d="M480.592,235.522a14.6,14.6,0,0,1-4.033-28.637.766.766,0,0,1,.947.947A13.05,13.05,0,0,0,493.676,224a.765.765,0,0,1,.946.947A14.663,14.663,0,0,1,480.592,235.522Z" fill="url(#linear-gradient-2)"/>
    <path id="Path_80" data-name="Path 80" d="M473.655,252.344a10.664,10.664,0,1,0,0-21.328c-.037,0-.073,0-.109,0a17.023,17.023,0,0,0-32.444-5.068c-.084,0-.167-.006-.252-.006a13.2,13.2,0,0,0,0,26.4" fill="url(#linear-gradient-3)"/>
    <path id="Path_81" data-name="Path 81" d="M487.872,252.344a6.7,6.7,0,1,0,0-13.393c-.023,0-.045,0-.068,0a10.689,10.689,0,0,0-20.373-3.182c-.052,0-.105,0-.158,0a8.288,8.288,0,1,0,0,16.576" fill="#eee"/>
    <path id="Path_82" data-name="Path 82" d="M433.465,274.859a2,2,0,0,1-1.73-3l6.5-11.257a2,2,0,1,1,3.464,2l-6.5,11.257A2,2,0,0,1,433.465,274.859Z" fill="url(#linear-gradient-4)"/>
    <path id="Path_83" data-name="Path 83" d="M444.1,274.859a2,2,0,0,1-1.73-3l6.5-11.257a2,2,0,1,1,3.463,2l-6.5,11.257A2,2,0,0,1,444.1,274.859Z" fill="url(#linear-gradient-4)"/>
  </g>
</svg>
