<svg xmlns="http://www.w3.org/2000/svg" xmlns:xlink="http://www.w3.org/1999/xlink" width="66.916" height="59.043" viewBox="0 0 66.916 59.043">
  <defs>
    <linearGradient id="linear-gradient" x1="0.208" y1="1.112" x2="0.78" y2="0.223" gradientUnits="objectBoundingBox">
      <stop offset="0" stop-color="#c4e3f7"/>
      <stop offset="1" stop-color="#d9eaf8"/>
    </linearGradient>
    <linearGradient id="linear-gradient-2" y1="0.5" x2="1" y2="0.5" gradientUnits="objectBoundingBox">
      <stop offset="0" stop-color="#00a1ed"/>
      <stop offset="1" stop-color="#00b2f1"/>
    </linearGradient>
  </defs>
  <g id="Rain" transform="translate(-579.262 -378.349)">
    <path id="Path_61" data-name="Path 61" d="M625.264,414.788a10.664,10.664,0,0,0,0-21.328c-.036,0-.072.006-.109.006a17.022,17.022,0,0,0-32.443-5.068c-.084,0-.167-.006-.252-.006a13.2,13.2,0,0,0,0,26.4" fill="#eee"/>
    <path id="Path_62" data-name="Path 62" d="M639.482,414.788a6.7,6.7,0,0,0,0-13.392c-.023,0-.045,0-.068,0a10.689,10.689,0,0,0-20.373-3.182c-.053,0-.105,0-.158,0a8.287,8.287,0,1,0,0,16.575" fill="url(#linear-gradient)"/>
    <path id="Path_63" data-name="Path 63" d="M585.075,437.392a2,2,0,0,1-1.73-3l6.5-11.257a2,2,0,1,1,3.464,2l-6.5,11.257A2,2,0,0,1,585.075,437.392Z" fill="url(#linear-gradient-2)"/>
    <path id="Path_64" data-name="Path 64" d="M596.209,437.392a2,2,0,0,1-1.73-3l6.5-11.257a2,2,0,1,1,3.464,2l-6.5,11.257A2,2,0,0,1,596.209,437.392Z" fill="url(#linear-gradient-2)"/>
    <path id="Path_65" data-name="Path 65" d="M607.343,437.392a2,2,0,0,1-1.73-3l6.5-11.257a2,2,0,1,1,3.463,2l-6.5,11.257A2,2,0,0,1,607.343,437.392Z" fill="url(#linear-gradient-2)"/>
  </g>
</svg>
