<svg xmlns="http://www.w3.org/2000/svg" xmlns:xlink="http://www.w3.org/1999/xlink" width="66.916" height="58.717" viewBox="0 0 66.916 58.717">
  <defs>
    <linearGradient id="linear-gradient" x1="0.146" y1="0.854" x2="0.854" y2="0.146" gradientUnits="objectBoundingBox">
      <stop offset="0" stop-color="#ffa611"/>
      <stop offset="1" stop-color="#ffc005"/>
    </linearGradient>
    <linearGradient id="linear-gradient-2" x1="0.208" y1="1.112" x2="0.78" y2="0.224" gradientUnits="objectBoundingBox">
      <stop offset="0" stop-color="#c4e3f7"/>
      <stop offset="1" stop-color="#d9eaf8"/>
    </linearGradient>
    <linearGradient id="linear-gradient-3" y1="0.5" x2="1" y2="0.5" gradientUnits="objectBoundingBox">
      <stop offset="0" stop-color="#00a1ed"/>
      <stop offset="1" stop-color="#00b2f1"/>
    </linearGradient>
  </defs>
  <g id="Scattered_Showers" data-name="Scattered Showers" transform="translate(-882.398 -672.707)">
    <circle id="Ellipse_43" data-name="Ellipse 43" cx="12.963" cy="12.963" r="12.963" transform="translate(917.758 672.707)" fill="url(#linear-gradient)"/>
    <path id="Path_50" data-name="Path 50" d="M928.4,715.078a10.664,10.664,0,0,0,0-21.328c-.036,0-.072.005-.109.005a17.022,17.022,0,0,0-32.443-5.068c-.084,0-.167-.006-.252-.006a13.2,13.2,0,0,0,0,26.4" fill="#eee"/>
    <path id="Path_51" data-name="Path 51" d="M942.618,715.078a6.7,6.7,0,0,0,0-13.393c-.023,0-.045,0-.068,0a10.689,10.689,0,0,0-20.373-3.182c-.053,0-.1,0-.158,0a8.288,8.288,0,0,0,0,16.576" fill="url(#linear-gradient-2)"/>
    <path id="Path_52" data-name="Path 52" d="M894.751,731.424a2,2,0,0,1-1.73-3l2.887-5a2,2,0,0,1,3.465,2l-2.887,5A2,2,0,0,1,894.751,731.424Z" fill="url(#linear-gradient-3)"/>
    <path id="Path_53" data-name="Path 53" d="M908.364,731.424a2,2,0,0,1-1.731-3l2.887-5a2,2,0,0,1,3.465,2l-2.887,5A2,2,0,0,1,908.364,731.424Z" fill="url(#linear-gradient-3)"/>
    <path id="Path_54" data-name="Path 54" d="M922.975,731.424a2,2,0,0,1-1.73-3l2.886-5a2,2,0,0,1,3.465,2l-2.887,5A2,2,0,0,1,922.975,731.424Z" fill="url(#linear-gradient-3)"/>
  </g>
</svg>
