<svg xmlns="http://www.w3.org/2000/svg" xmlns:xlink="http://www.w3.org/1999/xlink" width="66.916" height="59.045" viewBox="0 0 66.916 59.045">
  <defs>
    <linearGradient id="linear-gradient" x1="-0.077" y1="0.836" x2="0.8" y2="0.107" gradientUnits="objectBoundingBox">
      <stop offset="0" stop-color="#ffa611"/>
      <stop offset="1" stop-color="#ffc005"/>
    </linearGradient>
    <linearGradient id="linear-gradient-2" x1="0.208" y1="1.112" x2="0.78" y2="0.224" gradientUnits="objectBoundingBox">
      <stop offset="0" stop-color="#c4e3f7"/>
      <stop offset="1" stop-color="#d9eaf8"/>
    </linearGradient>
  </defs>
  <g id="Severe_Thunderstorm" data-name="Severe Thunderstorm" transform="translate(-1337.102 -529.128)">
    <path id="Path_28" data-name="Path 28" d="M1364.7,561.828a5.755,5.755,0,0,0-4.5,2.595l-5.267,9.122c-.825,1.429-.154,2.5,1.492,2.378l4.3-.316c1.646-.121,2.347.966,1.56,2.416l-4.786,8.806c-.787,1.45-.389,1.779.885.73l17.3-14.229c1.274-1.048.968-1.836-.679-1.752l-6.611.338c-1.648.085-2.322-1.016-1.5-2.445l2.91-5.039c.825-1.429.15-2.6-1.5-2.6Z" fill="url(#linear-gradient)"/>
    <path id="Path_29" data-name="Path 29" d="M1383.1,565.566a10.663,10.663,0,1,0,0-21.327c-.036,0-.072.005-.109.005a17.022,17.022,0,0,0-32.443-5.068c-.084,0-.167-.006-.252-.006a13.2,13.2,0,0,0,0,26.4" fill="#eee"/>
    <path id="Path_30" data-name="Path 30" d="M1397.322,565.566a6.7,6.7,0,0,0,0-13.392c-.023,0-.045,0-.068,0a10.689,10.689,0,0,0-20.373-3.182c-.053,0-.1,0-.158,0a8.287,8.287,0,1,0,0,16.575" fill="url(#linear-gradient-2)"/>
    <path id="Path_31" data-name="Path 31" d="M1360.185,561.926" fill="none" stroke="#00a1ed" stroke-linecap="round" stroke-miterlimit="10" stroke-width="4"/>
    <path id="Path_32" data-name="Path 32" d="M1374.684,574.382" fill="none" stroke="#00a1ed" stroke-linecap="round" stroke-miterlimit="10" stroke-width="4"/>
  </g>
</svg>
