<svg xmlns="http://www.w3.org/2000/svg" xmlns:xlink="http://www.w3.org/1999/xlink" width="66.916" height="65.106" viewBox="0 0 66.916 65.106">
  <defs>
    <linearGradient id="linear-gradient" x1="0.208" y1="1.112" x2="0.78" y2="0.224" gradientUnits="objectBoundingBox">
      <stop offset="0" stop-color="#c4e3f7"/>
      <stop offset="1" stop-color="#d9eaf8"/>
    </linearGradient>
    <linearGradient id="linear-gradient-2" y1="0.5" x2="1" y2="0.5" gradientUnits="objectBoundingBox">
      <stop offset="0" stop-color="#00a1ed"/>
      <stop offset="1" stop-color="#00b2f1"/>
    </linearGradient>
    <linearGradient id="linear-gradient-4" x1="0" y1="0.5" x2="1" y2="0.5" xlink:href="#linear-gradient"/>
  </defs>
  <g id="Sleet" transform="translate(-730.83 -216.35)">
    <path id="Path_15" data-name="Path 15" d="M776.832,252.788a10.663,10.663,0,1,0,0-21.327c-.036,0-.072.005-.109.005A17.022,17.022,0,0,0,744.28,226.4c-.084,0-.167-.006-.252-.006a13.2,13.2,0,0,0,0,26.4" fill="#eee"/>
    <path id="Path_16" data-name="Path 16" d="M791.05,252.788a6.7,6.7,0,0,0,0-13.392c-.023,0-.045,0-.068,0a10.689,10.689,0,0,0-20.373-3.182c-.053,0-.1,0-.158,0a8.287,8.287,0,1,0,0,16.575" fill="url(#linear-gradient)"/>
    <path id="Path_17" data-name="Path 17" d="M737.643,275.392a2,2,0,0,1-1.73-3l6.5-11.257a2,2,0,0,1,3.464,2l-6.5,11.257A2,2,0,0,1,737.643,275.392Z" fill="url(#linear-gradient-2)"/>
    <path id="Path_18" data-name="Path 18" d="M744.783,281.456a2,2,0,0,1-1.731-3l10-17.321a2,2,0,0,1,3.465,2l-10,17.321A2,2,0,0,1,744.783,281.456Z" fill="url(#linear-gradient-2)"/>
    <circle id="Ellipse_32" data-name="Ellipse 32" cx="2" cy="2" r="2" transform="translate(764.017 260.134)" fill="url(#linear-gradient-4)"/>
    <circle id="Ellipse_33" data-name="Ellipse 33" cx="2" cy="2" r="2" transform="translate(774.017 260.134)" fill="url(#linear-gradient-4)"/>
    <circle id="Ellipse_34" data-name="Ellipse 34" cx="2" cy="2" r="2" transform="translate(755.017 276.742)" fill="url(#linear-gradient-4)"/>
    <circle id="Ellipse_35" data-name="Ellipse 35" cx="2" cy="2" r="2" transform="translate(760.017 268.242)" fill="url(#linear-gradient-4)"/>
    <circle id="Ellipse_36" data-name="Ellipse 36" cx="2" cy="2" r="2" transform="translate(770.017 268.242)" fill="url(#linear-gradient-4)"/>
  </g>
</svg>
